<svg xmlns="http://www.w3.org/2000/svg" xmlns:xlink="http://www.w3.org/1999/xlink" width="100" zoomAndPan="magnify" viewBox="0 0 75 33.749998" height="45" preserveAspectRatio="xMidYMid meet" version="1.0"><defs><g/><clipPath id="196c295123"><path d="M 7.175781 5.957031 L 28.765625 5.957031 L 28.765625 27.546875 L 7.175781 27.546875 Z M 7.175781 5.957031 " clip-rule="nonzero"/></clipPath></defs><g clip-path="url(#196c295123)"><path fill="#7ed957" d="M 17.96875 5.957031 C 12.007812 5.957031 7.175781 10.789062 7.175781 16.75 C 7.175781 22.714844 12.007812 27.546875 17.96875 27.546875 C 23.933594 27.546875 28.765625 22.714844 28.765625 16.75 C 28.765625 10.789062 23.933594 5.957031 17.96875 5.957031 Z M 22.289062 17.832031 L 16.257812 17.832031 L 17.96875 19.542969 C 18.390625 19.964844 18.390625 20.648438 17.96875 21.070312 C 17.546875 21.488281 16.863281 21.488281 16.441406 21.070312 L 12.886719 17.515625 C 12.464844 17.09375 12.464844 16.410156 12.886719 15.988281 L 16.441406 12.433594 C 16.863281 12.011719 17.546875 12.011719 17.96875 12.433594 C 18.390625 12.855469 18.390625 13.539062 17.96875 13.960938 L 16.257812 15.671875 L 22.289062 15.671875 C 22.882812 15.671875 23.367188 16.15625 23.367188 16.75 C 23.367188 17.347656 22.882812 17.832031 22.289062 17.832031 Z M 22.289062 17.832031 " fill-opacity="1" fill-rule="nonzero"/></g><g fill="#7ed957" fill-opacity="1"><g transform="translate(38.961511, 20.473343)"><g><path d="M 1.015625 0 L 1.015625 -7.796875 L 4.34375 -7.796875 C 4.820312 -7.796875 5.226562 -7.71875 5.5625 -7.5625 C 5.894531 -7.414062 6.144531 -7.203125 6.3125 -6.921875 C 6.476562 -6.640625 6.5625 -6.3125 6.5625 -5.9375 C 6.5625 -5.59375 6.476562 -5.285156 6.3125 -5.015625 C 6.144531 -4.753906 5.90625 -4.546875 5.59375 -4.390625 L 5.59375 -4.28125 C 6.082031 -4.144531 6.460938 -3.910156 6.734375 -3.578125 C 7.003906 -3.242188 7.140625 -2.828125 7.140625 -2.328125 C 7.140625 -1.585938 6.910156 -1.015625 6.453125 -0.609375 C 6.003906 -0.203125 5.335938 0 4.453125 0 Z M 4.015625 -4.6875 C 4.734375 -4.6875 5.09375 -5.007812 5.09375 -5.65625 C 5.09375 -5.988281 5.003906 -6.234375 4.828125 -6.390625 C 4.648438 -6.554688 4.378906 -6.640625 4.015625 -6.640625 L 2.546875 -6.640625 L 2.546875 -4.6875 Z M 4.296875 -1.21875 C 5.148438 -1.21875 5.578125 -1.601562 5.578125 -2.375 C 5.578125 -3.15625 5.148438 -3.546875 4.296875 -3.546875 L 2.546875 -3.546875 L 2.546875 -1.21875 Z M 4.296875 -1.21875 "/></g></g></g><g fill="#7ed957" fill-opacity="1"><g transform="translate(46.580283, 20.473343)"><g><path d="M 2.296875 0.109375 C 1.921875 0.109375 1.59375 0.0390625 1.3125 -0.09375 C 1.03125 -0.226562 0.816406 -0.429688 0.671875 -0.703125 C 0.523438 -0.972656 0.453125 -1.296875 0.453125 -1.671875 C 0.453125 -2.023438 0.523438 -2.316406 0.671875 -2.546875 C 0.816406 -2.785156 1.046875 -2.976562 1.359375 -3.125 C 1.671875 -3.28125 2.082031 -3.398438 2.59375 -3.484375 C 2.945312 -3.535156 3.210938 -3.59375 3.390625 -3.65625 C 3.578125 -3.726562 3.703125 -3.804688 3.765625 -3.890625 C 3.828125 -3.984375 3.859375 -4.09375 3.859375 -4.21875 C 3.859375 -4.40625 3.789062 -4.550781 3.65625 -4.65625 C 3.53125 -4.757812 3.3125 -4.8125 3 -4.8125 C 2.675781 -4.8125 2.363281 -4.738281 2.0625 -4.59375 C 1.769531 -4.445312 1.519531 -4.253906 1.3125 -4.015625 L 1.203125 -4.015625 L 0.578125 -4.9375 C 0.878906 -5.269531 1.242188 -5.53125 1.671875 -5.71875 C 2.097656 -5.90625 2.566406 -6 3.078125 -6 C 3.859375 -6 4.421875 -5.832031 4.765625 -5.5 C 5.117188 -5.164062 5.296875 -4.695312 5.296875 -4.09375 L 5.296875 -1.53125 C 5.296875 -1.269531 5.410156 -1.140625 5.640625 -1.140625 C 5.734375 -1.140625 5.820312 -1.15625 5.90625 -1.1875 L 5.984375 -1.171875 L 6.078125 -0.140625 C 6.003906 -0.0859375 5.894531 -0.0390625 5.75 0 C 5.601562 0.03125 5.441406 0.046875 5.265625 0.046875 C 4.910156 0.046875 4.632812 -0.0195312 4.4375 -0.15625 C 4.238281 -0.289062 4.097656 -0.503906 4.015625 -0.796875 L 3.90625 -0.8125 C 3.613281 -0.195312 3.078125 0.109375 2.296875 0.109375 Z M 2.765625 -0.984375 C 3.109375 -0.984375 3.378906 -1.097656 3.578125 -1.328125 C 3.785156 -1.566406 3.890625 -1.890625 3.890625 -2.296875 L 3.890625 -2.890625 L 3.78125 -2.90625 C 3.695312 -2.84375 3.582031 -2.785156 3.4375 -2.734375 C 3.289062 -2.679688 3.082031 -2.632812 2.8125 -2.59375 C 2.488281 -2.539062 2.257812 -2.445312 2.125 -2.3125 C 1.988281 -2.1875 1.921875 -2.003906 1.921875 -1.765625 C 1.921875 -1.515625 1.992188 -1.320312 2.140625 -1.1875 C 2.285156 -1.050781 2.492188 -0.984375 2.765625 -0.984375 Z M 2.765625 -0.984375 "/></g></g></g><g fill="#7ed957" fill-opacity="1"><g transform="translate(52.77653, 20.473343)"><g><path d="M 3.421875 0.109375 C 2.859375 0.109375 2.359375 -0.00390625 1.921875 -0.234375 C 1.484375 -0.472656 1.140625 -0.820312 0.890625 -1.28125 C 0.648438 -1.738281 0.53125 -2.289062 0.53125 -2.9375 C 0.53125 -3.582031 0.648438 -4.132812 0.890625 -4.59375 C 1.140625 -5.050781 1.476562 -5.398438 1.90625 -5.640625 C 2.34375 -5.878906 2.84375 -6 3.40625 -6 C 4.644531 -6 5.4375 -5.546875 5.78125 -4.640625 L 4.765625 -3.921875 L 4.65625 -3.921875 C 4.539062 -4.191406 4.382812 -4.394531 4.1875 -4.53125 C 3.988281 -4.664062 3.726562 -4.734375 3.40625 -4.734375 C 2.976562 -4.734375 2.644531 -4.585938 2.40625 -4.296875 C 2.164062 -4.003906 2.046875 -3.550781 2.046875 -2.9375 C 2.046875 -2.332031 2.164062 -1.878906 2.40625 -1.578125 C 2.644531 -1.285156 2.984375 -1.140625 3.421875 -1.140625 C 3.742188 -1.140625 4.015625 -1.222656 4.234375 -1.390625 C 4.460938 -1.566406 4.625 -1.816406 4.71875 -2.140625 L 4.828125 -2.15625 L 5.875 -1.578125 C 5.726562 -1.078125 5.453125 -0.671875 5.046875 -0.359375 C 4.648438 -0.046875 4.109375 0.109375 3.421875 0.109375 Z M 3.421875 0.109375 "/></g></g></g><g fill="#7ed957" fill-opacity="1"><g transform="translate(58.834254, 20.473343)"><g><path d="M 0.84375 0 L 0.84375 -8.25 L 2.328125 -8.25 L 2.328125 -3.671875 L 2.46875 -3.671875 L 4.171875 -5.875 L 5.671875 -5.875 L 5.671875 -5.765625 L 3.671875 -3.171875 L 5.890625 -0.140625 L 5.890625 0 L 4.328125 0 L 2.46875 -2.484375 L 2.328125 -2.484375 L 2.328125 0 Z M 0.84375 0 "/></g></g></g></svg>