<svg xmlns="http://www.w3.org/2000/svg" xmlns:xlink="http://www.w3.org/1999/xlink" width="100" zoomAndPan="magnify" viewBox="0 0 75 33.749998" height="45" preserveAspectRatio="xMidYMid meet" version="1.0"><defs><g/><clipPath id="932807a240"><path d="M 5.835938 7.695312 L 17.746094 7.695312 L 17.746094 25.5625 L 5.835938 25.5625 Z M 5.835938 7.695312 " clip-rule="nonzero"/></clipPath></defs><g clip-path="url(#932807a240)"><path fill="#004aad" d="M 17.191406 20.40625 L 11.964844 16.777344 L 17.191406 13.148438 C 17.363281 13.027344 17.46875 12.832031 17.46875 12.621094 C 17.46875 12.410156 17.363281 12.214844 17.191406 12.09375 L 11.140625 7.894531 C 10.945312 7.757812 10.6875 7.742188 10.476562 7.851562 C 10.265625 7.964844 10.132812 8.183594 10.132812 8.421875 L 10.132812 15.03125 L 7.023438 11.503906 C 6.789062 11.238281 6.382812 11.210938 6.117188 11.445312 C 5.851562 11.683594 5.824219 12.085938 6.058594 12.355469 L 9.921875 16.738281 L 6.054688 21.207031 C 5.824219 21.472656 5.851562 21.878906 6.121094 22.113281 C 6.242188 22.21875 6.390625 22.269531 6.542969 22.269531 C 6.722656 22.269531 6.902344 22.191406 7.027344 22.046875 L 10.132812 18.457031 L 10.132812 25.132812 C 10.132812 25.371094 10.265625 25.589844 10.476562 25.703125 C 10.570312 25.75 10.671875 25.773438 10.777344 25.773438 C 10.90625 25.773438 11.03125 25.734375 11.140625 25.660156 L 17.191406 21.460938 C 17.363281 21.339844 17.46875 21.144531 17.46875 20.933594 C 17.46875 20.722656 17.363281 20.527344 17.191406 20.40625 Z M 11.417969 9.652344 L 15.699219 12.621094 L 11.417969 15.589844 Z M 11.417969 23.902344 L 11.417969 17.964844 L 15.699219 20.933594 Z M 11.417969 23.902344 " fill-opacity="1" fill-rule="nonzero"/></g><g fill="#004aad" fill-opacity="1"><g transform="translate(22.273409, 19.530325)"><g><path d="M 3.421875 0.109375 C 2.859375 0.109375 2.359375 -0.00390625 1.921875 -0.234375 C 1.484375 -0.472656 1.140625 -0.820312 0.890625 -1.28125 C 0.648438 -1.738281 0.53125 -2.289062 0.53125 -2.9375 C 0.53125 -3.582031 0.648438 -4.132812 0.890625 -4.59375 C 1.140625 -5.050781 1.476562 -5.398438 1.90625 -5.640625 C 2.34375 -5.878906 2.84375 -6 3.40625 -6 C 4.644531 -6 5.4375 -5.546875 5.78125 -4.640625 L 4.765625 -3.921875 L 4.65625 -3.921875 C 4.539062 -4.191406 4.382812 -4.394531 4.1875 -4.53125 C 3.988281 -4.664062 3.726562 -4.734375 3.40625 -4.734375 C 2.976562 -4.734375 2.644531 -4.585938 2.40625 -4.296875 C 2.164062 -4.003906 2.046875 -3.550781 2.046875 -2.9375 C 2.046875 -2.332031 2.164062 -1.878906 2.40625 -1.578125 C 2.644531 -1.285156 2.984375 -1.140625 3.421875 -1.140625 C 3.742188 -1.140625 4.015625 -1.222656 4.234375 -1.390625 C 4.460938 -1.566406 4.625 -1.816406 4.71875 -2.140625 L 4.828125 -2.15625 L 5.875 -1.578125 C 5.726562 -1.078125 5.453125 -0.671875 5.046875 -0.359375 C 4.648438 -0.046875 4.109375 0.109375 3.421875 0.109375 Z M 3.421875 0.109375 "/></g></g></g><g fill="#004aad" fill-opacity="1"><g transform="translate(28.331133, 19.530325)"><g><path d="M 3.421875 0.109375 C 2.835938 0.109375 2.328125 -0.00390625 1.890625 -0.234375 C 1.460938 -0.472656 1.128906 -0.820312 0.890625 -1.28125 C 0.648438 -1.738281 0.53125 -2.289062 0.53125 -2.9375 C 0.53125 -3.582031 0.648438 -4.132812 0.890625 -4.59375 C 1.128906 -5.050781 1.460938 -5.398438 1.890625 -5.640625 C 2.328125 -5.878906 2.835938 -6 3.421875 -6 C 3.992188 -6 4.5 -5.878906 4.9375 -5.640625 C 5.375 -5.398438 5.710938 -5.050781 5.953125 -4.59375 C 6.191406 -4.132812 6.3125 -3.582031 6.3125 -2.9375 C 6.3125 -2.289062 6.191406 -1.738281 5.953125 -1.28125 C 5.710938 -0.820312 5.375 -0.472656 4.9375 -0.234375 C 4.5 -0.00390625 3.992188 0.109375 3.421875 0.109375 Z M 3.421875 -1.140625 C 4.328125 -1.140625 4.78125 -1.738281 4.78125 -2.9375 C 4.78125 -3.5625 4.660156 -4.015625 4.421875 -4.296875 C 4.191406 -4.585938 3.859375 -4.734375 3.421875 -4.734375 C 2.503906 -4.734375 2.046875 -4.132812 2.046875 -2.9375 C 2.046875 -1.738281 2.503906 -1.140625 3.421875 -1.140625 Z M 3.421875 -1.140625 "/></g></g></g><g fill="#004aad" fill-opacity="1"><g transform="translate(35.161389, 19.530325)"><g><path d="M 0.84375 0 L 0.84375 -5.875 L 2.265625 -5.875 L 2.265625 -5.015625 L 2.375 -4.984375 C 2.738281 -5.660156 3.332031 -6 4.15625 -6 C 4.832031 -6 5.332031 -5.8125 5.65625 -5.4375 C 5.976562 -5.070312 6.140625 -4.535156 6.140625 -3.828125 L 6.140625 0 L 4.65625 0 L 4.65625 -3.640625 C 4.65625 -4.035156 4.578125 -4.316406 4.421875 -4.484375 C 4.265625 -4.660156 4.015625 -4.75 3.671875 -4.75 C 3.242188 -4.75 2.910156 -4.609375 2.671875 -4.328125 C 2.441406 -4.054688 2.328125 -3.628906 2.328125 -3.046875 L 2.328125 0 Z M 0.84375 0 "/></g></g></g><g fill="#004aad" fill-opacity="1"><g transform="translate(42.044924, 19.530325)"><g><path d="M 0.84375 0 L 0.84375 -5.875 L 2.265625 -5.875 L 2.265625 -5.015625 L 2.375 -4.984375 C 2.738281 -5.660156 3.332031 -6 4.15625 -6 C 4.832031 -6 5.332031 -5.8125 5.65625 -5.4375 C 5.976562 -5.070312 6.140625 -4.535156 6.140625 -3.828125 L 6.140625 0 L 4.65625 0 L 4.65625 -3.640625 C 4.65625 -4.035156 4.578125 -4.316406 4.421875 -4.484375 C 4.265625 -4.660156 4.015625 -4.75 3.671875 -4.75 C 3.242188 -4.75 2.910156 -4.609375 2.671875 -4.328125 C 2.441406 -4.054688 2.328125 -3.628906 2.328125 -3.046875 L 2.328125 0 Z M 0.84375 0 "/></g></g></g><g fill="#004aad" fill-opacity="1"><g transform="translate(48.928459, 19.530325)"><g><path d="M 5.8125 -2.609375 L 2.03125 -2.609375 C 2.070312 -2.097656 2.21875 -1.722656 2.46875 -1.484375 C 2.71875 -1.253906 3.054688 -1.140625 3.484375 -1.140625 C 3.828125 -1.140625 4.101562 -1.203125 4.3125 -1.328125 C 4.519531 -1.453125 4.6875 -1.644531 4.8125 -1.90625 L 4.921875 -1.90625 L 5.90625 -1.28125 C 5.71875 -0.863281 5.425781 -0.523438 5.03125 -0.265625 C 4.644531 -0.015625 4.128906 0.109375 3.484375 0.109375 C 2.878906 0.109375 2.351562 -0.00390625 1.90625 -0.234375 C 1.46875 -0.460938 1.128906 -0.804688 0.890625 -1.265625 C 0.648438 -1.722656 0.53125 -2.28125 0.53125 -2.9375 C 0.53125 -3.601562 0.65625 -4.164062 0.90625 -4.625 C 1.15625 -5.082031 1.492188 -5.425781 1.921875 -5.65625 C 2.359375 -5.882812 2.84375 -6 3.375 -6 C 4.207031 -6 4.84375 -5.773438 5.28125 -5.328125 C 5.726562 -4.890625 5.953125 -4.242188 5.953125 -3.390625 C 5.953125 -3.078125 5.941406 -2.835938 5.921875 -2.671875 Z M 4.546875 -3.5625 C 4.523438 -4.007812 4.414062 -4.332031 4.21875 -4.53125 C 4.03125 -4.738281 3.75 -4.84375 3.375 -4.84375 C 2.632812 -4.84375 2.195312 -4.414062 2.0625 -3.5625 Z M 4.546875 -3.5625 "/></g></g></g><g fill="#004aad" fill-opacity="1"><g transform="translate(55.316507, 19.530325)"><g><path d="M 3.421875 0.109375 C 2.859375 0.109375 2.359375 -0.00390625 1.921875 -0.234375 C 1.484375 -0.472656 1.140625 -0.820312 0.890625 -1.28125 C 0.648438 -1.738281 0.53125 -2.289062 0.53125 -2.9375 C 0.53125 -3.582031 0.648438 -4.132812 0.890625 -4.59375 C 1.140625 -5.050781 1.476562 -5.398438 1.90625 -5.640625 C 2.34375 -5.878906 2.84375 -6 3.40625 -6 C 4.644531 -6 5.4375 -5.546875 5.78125 -4.640625 L 4.765625 -3.921875 L 4.65625 -3.921875 C 4.539062 -4.191406 4.382812 -4.394531 4.1875 -4.53125 C 3.988281 -4.664062 3.726562 -4.734375 3.40625 -4.734375 C 2.976562 -4.734375 2.644531 -4.585938 2.40625 -4.296875 C 2.164062 -4.003906 2.046875 -3.550781 2.046875 -2.9375 C 2.046875 -2.332031 2.164062 -1.878906 2.40625 -1.578125 C 2.644531 -1.285156 2.984375 -1.140625 3.421875 -1.140625 C 3.742188 -1.140625 4.015625 -1.222656 4.234375 -1.390625 C 4.460938 -1.566406 4.625 -1.816406 4.71875 -2.140625 L 4.828125 -2.15625 L 5.875 -1.578125 C 5.726562 -1.078125 5.453125 -0.671875 5.046875 -0.359375 C 4.648438 -0.046875 4.109375 0.109375 3.421875 0.109375 Z M 3.421875 0.109375 "/></g></g></g><g fill="#004aad" fill-opacity="1"><g transform="translate(61.37423, 19.530325)"><g><path d="M 4.0625 -1.40625 L 4.4375 -0.3125 C 4.28125 -0.175781 4.082031 -0.0703125 3.84375 0 C 3.601562 0.0703125 3.328125 0.109375 3.015625 0.109375 C 2.378906 0.109375 1.894531 -0.0625 1.5625 -0.40625 C 1.238281 -0.75 1.078125 -1.253906 1.078125 -1.921875 L 1.078125 -4.71875 L 0.171875 -4.71875 L 0.171875 -5.890625 L 1.078125 -5.890625 L 1.078125 -7.03125 L 2.546875 -7.28125 L 2.546875 -5.890625 L 4.21875 -5.890625 L 4.21875 -4.71875 L 2.546875 -4.71875 L 2.546875 -2.03125 C 2.546875 -1.738281 2.601562 -1.523438 2.71875 -1.390625 C 2.84375 -1.253906 3.023438 -1.1875 3.265625 -1.1875 C 3.523438 -1.1875 3.753906 -1.257812 3.953125 -1.40625 Z M 4.0625 -1.40625 "/></g></g></g></svg>