<svg xmlns="http://www.w3.org/2000/svg" xmlns:xlink="http://www.w3.org/1999/xlink" width="100" zoomAndPan="magnify" viewBox="0 0 75 33.749998" height="45" preserveAspectRatio="xMidYMid meet" version="1.0"><defs><g/><clipPath id="736ddbf2d7"><path d="M 7.496094 6.171875 L 24.621094 6.171875 L 24.621094 27.019531 L 7.496094 27.019531 Z M 7.496094 6.171875 " clip-rule="nonzero"/></clipPath></defs><g clip-path="url(#736ddbf2d7)"><path fill="#0097b2" d="M 22.933594 15.230469 C 22.714844 15.34375 22.472656 15.453125 22.21875 15.554688 C 22.167969 15.574219 22.117188 15.582031 22.066406 15.582031 C 21.902344 15.582031 21.75 15.484375 21.6875 15.320312 C 21.601562 15.109375 21.707031 14.871094 21.917969 14.785156 C 22.148438 14.695312 22.363281 14.597656 22.5625 14.496094 C 22.765625 14.394531 23.011719 14.472656 23.113281 14.675781 C 23.214844 14.878906 23.136719 15.128906 22.933594 15.230469 M 12.839844 15.867188 C 12.800781 16.0625 12.628906 16.199219 12.4375 16.199219 C 12.410156 16.199219 12.382812 16.199219 12.359375 16.191406 C 12.046875 16.132812 11.738281 16.0625 11.449219 15.984375 C 11.230469 15.929688 11.097656 15.703125 11.152344 15.484375 C 11.210938 15.261719 11.433594 15.128906 11.652344 15.1875 C 11.929688 15.261719 12.21875 15.324219 12.515625 15.382812 C 12.738281 15.425781 12.882812 15.644531 12.839844 15.867188 M 10.644531 15.320312 C 10.582031 15.484375 10.425781 15.582031 10.261719 15.582031 C 10.210938 15.582031 10.160156 15.574219 10.113281 15.554688 C 9.859375 15.453125 9.617188 15.34375 9.394531 15.230469 C 9.195312 15.128906 9.113281 14.878906 9.214844 14.675781 C 9.320312 14.472656 9.566406 14.394531 9.765625 14.496094 C 9.964844 14.597656 10.183594 14.695312 10.414062 14.785156 C 10.625 14.871094 10.726562 15.109375 10.644531 15.320312 M 22.777344 13.0625 C 23.636719 12.679688 24.324219 12.226562 24.8125 11.730469 L 24.8125 14.875 C 24.578125 15.617188 23.75 16.34375 22.457031 16.921875 C 20.785156 17.667969 18.550781 18.078125 16.164062 18.078125 C 13.78125 18.078125 11.546875 17.667969 9.871094 16.921875 C 8.582031 16.34375 7.753906 15.617188 7.519531 14.875 L 7.519531 11.730469 C 8.007812 12.226562 8.691406 12.679688 9.554688 13.0625 C 11.328125 13.851562 13.675781 14.289062 16.164062 14.289062 C 18.65625 14.289062 21.003906 13.851562 22.777344 13.0625 Z M 22.136719 7.128906 C 23.867188 7.800781 24.820312 8.742188 24.820312 9.789062 C 24.820312 10.832031 23.867188 11.777344 22.136719 12.445312 C 20.535156 13.0625 18.414062 13.402344 16.164062 13.402344 C 13.917969 13.402344 11.796875 13.0625 10.195312 12.445312 C 8.464844 11.777344 7.511719 10.832031 7.511719 9.789062 C 7.511719 8.742188 8.464844 7.800781 10.195312 7.128906 C 11.796875 6.511719 13.917969 6.171875 16.164062 6.171875 C 18.414062 6.171875 20.535156 6.511719 22.136719 7.128906 Z M 23.113281 19.269531 C 23.214844 19.472656 23.136719 19.722656 22.933594 19.824219 C 22.714844 19.9375 22.472656 20.046875 22.21875 20.148438 C 22.167969 20.167969 22.117188 20.175781 22.066406 20.175781 C 21.902344 20.175781 21.75 20.078125 21.6875 19.914062 C 21.601562 19.703125 21.707031 19.464844 21.917969 19.378906 C 22.148438 19.289062 22.363281 19.191406 22.5625 19.089844 C 22.765625 18.988281 23.011719 19.066406 23.113281 19.269531 M 12.839844 20.460938 C 12.800781 20.65625 12.628906 20.792969 12.4375 20.792969 C 12.410156 20.792969 12.382812 20.792969 12.359375 20.785156 C 12.046875 20.726562 11.738281 20.65625 11.449219 20.578125 C 11.230469 20.523438 11.097656 20.296875 11.152344 20.078125 C 11.210938 19.855469 11.433594 19.722656 11.652344 19.78125 C 11.929688 19.855469 12.21875 19.917969 12.515625 19.976562 C 12.738281 20.019531 12.882812 20.238281 12.839844 20.460938 M 10.644531 19.914062 C 10.582031 20.078125 10.425781 20.175781 10.261719 20.175781 C 10.210938 20.175781 10.160156 20.167969 10.113281 20.148438 C 9.859375 20.046875 9.617188 19.9375 9.394531 19.824219 C 9.195312 19.722656 9.113281 19.472656 9.214844 19.269531 C 9.320312 19.066406 9.566406 18.988281 9.765625 19.089844 C 9.964844 19.191406 10.183594 19.289062 10.414062 19.378906 C 10.625 19.464844 10.726562 19.703125 10.644531 19.914062 M 16.164062 18.945312 C 13.675781 18.945312 11.328125 18.507812 9.554688 17.71875 C 8.691406 17.335938 8.007812 16.882812 7.519531 16.386719 L 7.519531 19.53125 C 7.753906 20.273438 8.582031 21 9.871094 21.578125 C 11.546875 22.320312 13.78125 22.734375 16.164062 22.734375 C 18.550781 22.734375 20.785156 22.320312 22.457031 21.578125 C 23.75 21 24.578125 20.273438 24.8125 19.53125 L 24.8125 16.386719 C 24.324219 16.882812 23.636719 17.335938 22.777344 17.71875 C 21.003906 18.507812 18.65625 18.945312 16.164062 18.945312 M 23.113281 24.023438 C 23.214844 24.226562 23.136719 24.476562 22.933594 24.578125 C 22.714844 24.691406 22.472656 24.800781 22.21875 24.902344 C 22.167969 24.921875 22.117188 24.929688 22.066406 24.929688 C 21.902344 24.929688 21.75 24.832031 21.6875 24.667969 C 21.601562 24.457031 21.707031 24.21875 21.917969 24.132812 C 22.148438 24.042969 22.363281 23.945312 22.5625 23.84375 C 22.765625 23.742188 23.011719 23.820312 23.113281 24.023438 M 12.839844 25.214844 C 12.800781 25.410156 12.628906 25.546875 12.4375 25.546875 C 12.410156 25.546875 12.382812 25.546875 12.359375 25.539062 C 12.046875 25.480469 11.738281 25.410156 11.449219 25.332031 C 11.230469 25.277344 11.097656 25.050781 11.152344 24.832031 C 11.210938 24.609375 11.433594 24.476562 11.652344 24.535156 C 11.929688 24.605469 12.21875 24.671875 12.515625 24.730469 C 12.738281 24.773438 12.882812 24.992188 12.839844 25.214844 M 10.644531 24.667969 C 10.582031 24.832031 10.425781 24.929688 10.261719 24.929688 C 10.210938 24.929688 10.160156 24.921875 10.113281 24.902344 C 9.859375 24.800781 9.617188 24.691406 9.394531 24.578125 C 9.195312 24.476562 9.113281 24.226562 9.214844 24.023438 C 9.320312 23.820312 9.566406 23.742188 9.765625 23.84375 C 9.964844 23.945312 10.183594 24.042969 10.414062 24.132812 C 10.625 24.21875 10.726562 24.457031 10.644531 24.667969 M 16.164062 23.523438 C 13.675781 23.523438 11.328125 23.089844 9.554688 22.300781 C 8.691406 21.917969 8.007812 21.464844 7.519531 20.96875 L 7.519531 24.113281 C 7.753906 24.855469 8.582031 25.582031 9.871094 26.15625 C 11.546875 26.902344 13.78125 27.3125 16.164062 27.3125 C 18.550781 27.3125 20.785156 26.902344 22.457031 26.15625 C 23.75 25.582031 24.578125 24.855469 24.8125 24.113281 L 24.8125 20.96875 C 24.324219 21.464844 23.636719 21.917969 22.777344 22.300781 C 21.003906 23.089844 18.65625 23.523438 16.164062 23.523438 " fill-opacity="1" fill-rule="evenodd"/></g><g fill="#0097b2" fill-opacity="1"><g transform="translate(34.63419, 20.473343)"><g><path d="M 3.8125 -7.796875 C 5.082031 -7.796875 6.050781 -7.46875 6.71875 -6.8125 C 7.382812 -6.15625 7.71875 -5.179688 7.71875 -3.890625 C 7.71875 -2.609375 7.382812 -1.640625 6.71875 -0.984375 C 6.050781 -0.328125 5.082031 0 3.8125 0 L 1.015625 0 L 1.015625 -7.796875 Z M 3.734375 -1.296875 C 4.535156 -1.296875 5.132812 -1.5 5.53125 -1.90625 C 5.925781 -2.320312 6.125 -2.984375 6.125 -3.890625 C 6.125 -4.804688 5.925781 -5.46875 5.53125 -5.875 C 5.132812 -6.289062 4.535156 -6.5 3.734375 -6.5 L 2.546875 -6.5 L 2.546875 -1.296875 Z M 3.734375 -1.296875 "/></g></g></g><g fill="#0097b2" fill-opacity="1"><g transform="translate(42.961562, 20.473343)"><g><path d="M 7.484375 0 L 5.859375 0 L 5.28125 -1.796875 L 2.28125 -1.796875 L 1.703125 0 L 0.125 0 L 2.8125 -7.796875 L 4.78125 -7.796875 Z M 3.703125 -6.171875 L 2.703125 -3.09375 L 4.84375 -3.09375 L 3.84375 -6.171875 Z M 3.703125 -6.171875 "/></g></g></g><g fill="#0097b2" fill-opacity="1"><g transform="translate(50.553696, 20.473343)"><g><path d="M 6.25 -7.796875 L 6.25 -6.5 L 4 -6.5 L 4 0 L 2.46875 0 L 2.46875 -6.5 L 0.21875 -6.5 L 0.21875 -7.796875 Z M 6.25 -7.796875 "/></g></g></g><g fill="#0097b2" fill-opacity="1"><g transform="translate(57.011006, 20.473343)"><g><path d="M 7.484375 0 L 5.859375 0 L 5.28125 -1.796875 L 2.28125 -1.796875 L 1.703125 0 L 0.125 0 L 2.8125 -7.796875 L 4.78125 -7.796875 Z M 3.703125 -6.171875 L 2.703125 -3.09375 L 4.84375 -3.09375 L 3.84375 -6.171875 Z M 3.703125 -6.171875 "/></g></g></g></svg>