<svg xmlns="http://www.w3.org/2000/svg" xmlns:xlink="http://www.w3.org/1999/xlink" width="100" zoomAndPan="magnify" viewBox="0 0 75 33.749998" height="45" preserveAspectRatio="xMidYMid meet" version="1.0"><defs><g/><clipPath id="963bd3d47b"><path d="M 6.050781 5.832031 L 32 5.832031 L 32 27.421875 L 6.050781 27.421875 Z M 6.050781 5.832031 " clip-rule="nonzero"/></clipPath></defs><g clip-path="url(#963bd3d47b)"><path fill="#00bf63" d="M 16.328125 27.664062 L 16.328125 19.960938 L 21.464844 19.960938 L 21.464844 27.664062 L 27.882812 27.664062 L 27.882812 17.390625 L 31.738281 17.390625 L 18.894531 5.832031 L 6.050781 17.390625 L 9.90625 17.390625 L 9.90625 27.664062 Z M 16.328125 27.664062 " fill-opacity="1" fill-rule="nonzero"/></g><g fill="#00bf63" fill-opacity="1"><g transform="translate(33.931584, 20.473343)"><g><path d="M 6.046875 -4.859375 L 6.046875 -7.796875 L 7.578125 -7.796875 L 7.578125 0 L 6.046875 0 L 6.046875 -3.546875 L 2.546875 -3.546875 L 2.546875 0 L 1.015625 0 L 1.015625 -7.796875 L 2.546875 -7.796875 L 2.546875 -4.859375 Z M 6.046875 -4.859375 "/></g></g></g><g fill="#00bf63" fill-opacity="1"><g transform="translate(42.525347, 20.473343)"><g><path d="M 3.421875 0.109375 C 2.835938 0.109375 2.328125 -0.00390625 1.890625 -0.234375 C 1.460938 -0.472656 1.128906 -0.820312 0.890625 -1.28125 C 0.648438 -1.738281 0.53125 -2.289062 0.53125 -2.9375 C 0.53125 -3.582031 0.648438 -4.132812 0.890625 -4.59375 C 1.128906 -5.050781 1.460938 -5.398438 1.890625 -5.640625 C 2.328125 -5.878906 2.835938 -6 3.421875 -6 C 3.992188 -6 4.5 -5.878906 4.9375 -5.640625 C 5.375 -5.398438 5.710938 -5.050781 5.953125 -4.59375 C 6.191406 -4.132812 6.3125 -3.582031 6.3125 -2.9375 C 6.3125 -2.289062 6.191406 -1.738281 5.953125 -1.28125 C 5.710938 -0.820312 5.375 -0.472656 4.9375 -0.234375 C 4.5 -0.00390625 3.992188 0.109375 3.421875 0.109375 Z M 3.421875 -1.140625 C 4.328125 -1.140625 4.78125 -1.738281 4.78125 -2.9375 C 4.78125 -3.5625 4.660156 -4.015625 4.421875 -4.296875 C 4.191406 -4.585938 3.859375 -4.734375 3.421875 -4.734375 C 2.503906 -4.734375 2.046875 -4.132812 2.046875 -2.9375 C 2.046875 -1.738281 2.503906 -1.140625 3.421875 -1.140625 Z M 3.421875 -1.140625 "/></g></g></g><g fill="#00bf63" fill-opacity="1"><g transform="translate(49.355603, 20.473343)"><g><path d="M 0.84375 0 L 0.84375 -5.875 L 2.265625 -5.875 L 2.265625 -5.09375 L 2.375 -5.078125 C 2.570312 -5.390625 2.796875 -5.617188 3.046875 -5.765625 C 3.304688 -5.921875 3.640625 -6 4.046875 -6 C 4.484375 -6 4.835938 -5.910156 5.109375 -5.734375 C 5.378906 -5.554688 5.578125 -5.296875 5.703125 -4.953125 L 5.8125 -4.953125 C 6 -5.304688 6.234375 -5.566406 6.515625 -5.734375 C 6.804688 -5.910156 7.164062 -6 7.59375 -6 C 8.8125 -6 9.421875 -5.316406 9.421875 -3.953125 L 9.421875 0 L 7.9375 0 L 7.9375 -3.765625 C 7.9375 -4.109375 7.867188 -4.359375 7.734375 -4.515625 C 7.597656 -4.671875 7.382812 -4.75 7.09375 -4.75 C 6.28125 -4.75 5.875 -4.207031 5.875 -3.125 L 5.875 0 L 4.390625 0 L 4.390625 -3.765625 C 4.390625 -4.109375 4.320312 -4.359375 4.1875 -4.515625 C 4.050781 -4.671875 3.832031 -4.75 3.53125 -4.75 C 3.15625 -4.75 2.859375 -4.617188 2.640625 -4.359375 C 2.429688 -4.109375 2.328125 -3.707031 2.328125 -3.15625 L 2.328125 0 Z M 0.84375 0 "/></g></g></g><g fill="#00bf63" fill-opacity="1"><g transform="translate(59.521071, 20.473343)"><g><path d="M 5.8125 -2.609375 L 2.03125 -2.609375 C 2.070312 -2.097656 2.21875 -1.722656 2.46875 -1.484375 C 2.71875 -1.253906 3.054688 -1.140625 3.484375 -1.140625 C 3.828125 -1.140625 4.101562 -1.203125 4.3125 -1.328125 C 4.519531 -1.453125 4.6875 -1.644531 4.8125 -1.90625 L 4.921875 -1.90625 L 5.90625 -1.28125 C 5.71875 -0.863281 5.425781 -0.523438 5.03125 -0.265625 C 4.644531 -0.015625 4.128906 0.109375 3.484375 0.109375 C 2.878906 0.109375 2.351562 -0.00390625 1.90625 -0.234375 C 1.46875 -0.460938 1.128906 -0.804688 0.890625 -1.265625 C 0.648438 -1.722656 0.53125 -2.28125 0.53125 -2.9375 C 0.53125 -3.601562 0.65625 -4.164062 0.90625 -4.625 C 1.15625 -5.082031 1.492188 -5.425781 1.921875 -5.65625 C 2.359375 -5.882812 2.84375 -6 3.375 -6 C 4.207031 -6 4.84375 -5.773438 5.28125 -5.328125 C 5.726562 -4.890625 5.953125 -4.242188 5.953125 -3.390625 C 5.953125 -3.078125 5.941406 -2.835938 5.921875 -2.671875 Z M 4.546875 -3.5625 C 4.523438 -4.007812 4.414062 -4.332031 4.21875 -4.53125 C 4.03125 -4.738281 3.75 -4.84375 3.375 -4.84375 C 2.632812 -4.84375 2.195312 -4.414062 2.0625 -3.5625 Z M 4.546875 -3.5625 "/></g></g></g></svg>