<svg xmlns="http://www.w3.org/2000/svg" xmlns:xlink="http://www.w3.org/1999/xlink" width="45" zoomAndPan="magnify" viewBox="0 0 33.75 33.749998" height="45" preserveAspectRatio="xMidYMid meet" version="1.0"><defs><clipPath id="ca2c45624b"><path d="M 3.351562 6.421875 L 30.152344 6.421875 L 30.152344 27.265625 L 3.351562 27.265625 Z M 3.351562 6.421875 " clip-rule="nonzero"/></clipPath></defs><g clip-path="url(#ca2c45624b)"><path fill="#7ed957" d="M 29.984375 14.320312 C 29.90625 14.222656 29.78125 14.164062 29.648438 14.164062 L 28.050781 14.164062 L 28.359375 12.976562 C 28.390625 12.847656 28.363281 12.710938 28.277344 12.609375 C 28.191406 12.503906 28.066406 12.4375 27.925781 12.445312 L 27.496094 12.445312 L 27.496094 9.433594 C 27.496094 9.195312 27.300781 9.003906 27.0625 9.003906 L 12.871094 9.003906 L 12.871094 7.710938 C 12.871094 6.996094 12.292969 6.421875 11.578125 6.421875 L 4.695312 6.421875 C 3.980469 6.421875 3.402344 6.996094 3.402344 7.710938 L 3.402344 26.636719 C 3.402344 26.652344 3.402344 26.675781 3.402344 26.691406 C 3.398438 26.71875 3.398438 26.738281 3.402344 26.765625 C 3.414062 26.796875 3.429688 26.835938 3.453125 26.867188 L 3.472656 26.910156 C 3.5 26.941406 3.539062 26.96875 3.574219 26.988281 L 3.617188 27.019531 C 3.6875 27.054688 3.761719 27.074219 3.835938 27.074219 L 27.0625 27.074219 C 27.269531 27.078125 27.445312 26.9375 27.496094 26.734375 L 30.078125 14.691406 C 30.101562 14.558594 30.070312 14.421875 29.984375 14.320312 Z M 27.375 13.304688 L 27.164062 14.164062 L 8.265625 14.164062 L 8.476562 13.304688 Z M 8.140625 12.445312 C 7.9375 12.4375 7.757812 12.570312 7.710938 12.769531 L 7.375 14.164062 L 6.425781 14.164062 C 6.214844 14.15625 6.039062 14.300781 5.992188 14.503906 L 5.992188 11.585938 L 24.917969 11.585938 L 24.917969 12.445312 Z M 4.273438 7.710938 C 4.273438 7.472656 4.464844 7.277344 4.707031 7.277344 L 11.589844 7.277344 C 11.828125 7.277344 12.019531 7.472656 12.019531 7.710938 L 12.019531 9.433594 C 12.019531 9.675781 12.214844 9.867188 12.453125 9.867188 L 26.644531 9.867188 L 26.644531 12.449219 L 25.785156 12.449219 L 25.785156 11.15625 C 25.785156 10.917969 25.59375 10.726562 25.355469 10.726562 L 5.566406 10.726562 C 5.324219 10.726562 5.132812 10.917969 5.132812 11.15625 L 5.132812 18.46875 C 5.132812 18.46875 5.132812 18.5 5.132812 18.519531 L 4.273438 22.582031 C 4.273438 22.582031 4.273438 7.710938 4.273438 7.710938 Z M 26.71875 26.203125 L 4.375 26.203125 L 6.769531 15.027344 L 29.136719 15.027344 Z M 26.71875 26.203125 " fill-opacity="1" fill-rule="nonzero"/></g><path fill="#7ed957" d="M 7.28125 9.003906 L 10.722656 9.003906 C 10.964844 9.003906 11.15625 8.808594 11.15625 8.570312 C 11.15625 8.332031 10.964844 8.136719 10.722656 8.136719 L 7.28125 8.136719 C 7.042969 8.136719 6.851562 8.332031 6.851562 8.570312 C 6.851562 8.808594 7.046875 9.003906 7.28125 9.003906 Z M 7.28125 9.003906 " fill-opacity="1" fill-rule="nonzero"/><path fill="#7ed957" d="M 5.996094 8.570312 C 5.996094 8.691406 5.953125 8.792969 5.871094 8.875 C 5.785156 8.960938 5.683594 9.003906 5.566406 9.003906 C 5.445312 9.003906 5.34375 8.960938 5.257812 8.875 C 5.175781 8.792969 5.132812 8.691406 5.132812 8.570312 C 5.132812 8.449219 5.175781 8.347656 5.257812 8.265625 C 5.34375 8.179688 5.445312 8.136719 5.566406 8.136719 C 5.683594 8.136719 5.785156 8.179688 5.871094 8.265625 C 5.953125 8.347656 5.996094 8.449219 5.996094 8.570312 Z M 5.996094 8.570312 " fill-opacity="1" fill-rule="nonzero"/></svg>